HIERARCHY
ROOT root
{
	OFFSET 0.000000 0.000000 0.000000
	CHANNELS 6 Xposition Yposition Zposition Zrotation Yrotation Xrotation
	JOINT lhip
	{
		OFFSET 0.058581 -0.082280 -0.017664
		CHANNELS 3 Zrotation Yrotation Xrotation
		JOINT lknee
		{
			OFFSET 0.043451 -0.386469 0.008037
			CHANNELS 3 Zrotation Yrotation Xrotation
			JOINT lankle
			{
				OFFSET -0.014790 -0.426874 -0.037428
				CHANNELS 3 Zrotation Yrotation Xrotation
				JOINT ltoe
				{
					OFFSET 0.041054 -0.060286 0.122042
					CHANNELS 3 Zrotation Yrotation Xrotation
					End Site
					{
						OFFSET 0.000000 0.000000 0.000000
					}
				}
			}
		}
	}
	JOINT rhip
	{
		OFFSET -0.060310 -0.090513 -0.013543
		CHANNELS 3 Zrotation Yrotation Xrotation
		JOINT rknee
		{
			OFFSET -0.043257 -0.383688 -0.004843
			CHANNELS 3 Zrotation Yrotation Xrotation
			JOINT rankle
			{
				OFFSET 0.019056 -0.420046 -0.034562
				CHANNELS 3 Zrotation Yrotation Xrotation
				JOINT rtoe
				{
					OFFSET -0.034840 -0.062106 0.130323
					CHANNELS 3 Zrotation Yrotation Xrotation
					End Site
					{
						OFFSET 0.000000 0.000000 0.000000
					}
				}
			}
		}
	}
	JOINT lowerback
	{
		OFFSET 0.004439 0.124404 -0.038385
		CHANNELS 3 Zrotation Yrotation Xrotation
		JOINT upperback
		{
			OFFSET 0.004488 0.137956 0.026820
			CHANNELS 3 Zrotation Yrotation Xrotation
			JOINT chest
			{
				OFFSET -0.002265 0.056032 0.002855
				CHANNELS 3 Zrotation Yrotation Xrotation
				JOINT lowerneck
				{
					OFFSET -0.013390 0.211636 -0.033468
					CHANNELS 3 Zrotation Yrotation Xrotation
					JOINT upperneck
					{
						OFFSET 0.010113 0.088937 0.050410
						CHANNELS 3 Zrotation Yrotation Xrotation
						End Site
						{
							OFFSET 0.000000 0.000000 0.000000
						}
					}
				}
				JOINT lclavicle
				{
					OFFSET 0.071702 0.114000 -0.018898
					CHANNELS 3 Zrotation Yrotation Xrotation
					JOINT lshoulder
					{
						OFFSET 0.122921 0.045205 -0.019046
						CHANNELS 3 Zrotation Yrotation Xrotation
						JOINT lelbow
						{
							OFFSET 0.255332 -0.015649 -0.022946
							CHANNELS 3 Zrotation Yrotation Xrotation
							JOINT lwrist
							{
								OFFSET 0.265709 0.012698 -0.007375
								CHANNELS 3 Zrotation Yrotation Xrotation
								End Site
								{
									OFFSET 0.000000 0.000000 0.000000
								}
							}
						}
					}
				}
				JOINT rclavicle
				{
					OFFSET -0.082954 0.112472 -0.023707
					CHANNELS 3 Zrotation Yrotation Xrotation
					JOINT rshoulder
					{
						OFFSET -0.113228 0.046853 -0.008472
						CHANNELS 3 Zrotation Yrotation Xrotation
						JOINT relbow
						{
							OFFSET -0.260127 -0.014369 -0.031269
							CHANNELS 3 Zrotation Yrotation Xrotation
							JOINT rwrist
							{
								OFFSET -0.269108 0.006794 -0.006027
								CHANNELS 3 Zrotation Yrotation Xrotation
								End Site
								{
									OFFSET 0.000000 0.000000 0.000000
								}
							}
						}
					}
				}
			}
		}
	}
}
MOTION
Frames: 16
Frame Time: 0.033333
0.027794 0.284279 1.015510 81.856873 -1.758295 82.601540 1.634965 5.500076 10.084425 -4.334516 -1.311127 1.056960 0.115027 16.654971 -4.154227 0.000000 -0.000000 0.000000 -6.104992 -5.142397 3.161559 0.227538 -0.788564 8.965449 4.800515 -10.359401 -4.802834 0.000000 -0.000000 0.000000 1.878947 0.565151 12.032459 -1.148636 0.160256 6.474513 0.167620 -0.974196 5.311278 -4.865399 -6.498279 9.815939 5.996791 4.812573 13.137586 -15.744495 6.283771 12.147974 -58.234992 7.080462 17.034869 -20.999093 -60.973307 11.337549 22.904773 12.053148 -63.727281 13.137061 -0.280360 7.521684 62.241503 -4.338188 20.802390 19.113290 47.884498 3.154647 2.195124 -4.369226 -56.014558 
0.026414 0.280163 1.015746 81.373700 -1.614672 82.822613 2.044771 5.543126 9.807193 -4.345810 -1.129842 1.148181 -0.233326 16.839200 -4.176225 0.000000 -0.000000 0.000000 -5.581666 -5.070830 2.736976 0.226092 -0.594775 9.044686 4.678745 -10.372305 -4.775969 0.000000 -0.000000 0.000000 1.931582 0.350385 11.942890 -1.190136 0.009604 6.434627 0.174186 -1.065970 5.532127 -4.920320 -6.185347 9.591294 5.868057 5.111868 13.347823 -15.445096 5.973931 12.182288 -58.400642 6.505302 16.313533 -19.060407 -61.105801 10.192851 23.200545 11.638333 -62.076180 13.040294 -0.234186 7.520330 62.662247 -3.931030 20.496080 18.505457 47.317909 3.578210 2.300516 -4.141033 -54.694495 
0.025158 0.275918 1.016138 80.734654 -1.542539 83.002896 2.354685 5.761224 9.634237 -4.265027 -0.812798 1.198031 -0.374226 16.892474 -4.116873 0.000000 -0.000000 0.000000 -5.203669 -4.918738 2.357043 0.304640 -0.428464 9.161764 4.576397 -10.085111 -4.789671 0.000000 -0.000000 0.000000 1.853824 0.162323 12.061088 -1.178715 -0.098518 6.441559 0.214512 -1.114116 5.446696 -5.100830 -5.724287 9.656074 5.652090 5.482697 13.348508 -15.366200 5.755405 12.054475 -58.398951 5.962776 15.927960 -16.339677 -61.382482 8.795315 23.856670 11.530695 -60.727815 12.948952 -0.254234 7.400645 63.134507 -3.865551 20.239957 17.697956 46.791487 3.717098 2.412720 -4.369126 -54.148666 
0.023502 0.270542 1.016540 79.922930 -1.462284 83.169977 2.721673 5.913392 9.506339 -4.150011 -0.236927 1.228589 -0.585804 16.819479 -4.039579 0.000000 -0.000000 0.000000 -4.736618 -4.745636 2.067901 0.345651 -0.413422 9.089590 4.511772 -9.571219 -4.700966 0.000000 -0.000000 0.000000 1.701906 -0.172550 12.251811 -1.149071 -0.286258 6.641663 0.260850 -1.234286 5.338256 -5.224211 -4.944971 9.546229 5.329380 6.139570 13.402903 -15.564560 5.546174 11.886038 -58.329849 5.120932 15.256109 -11.577542 -62.050752 5.889470 23.929933 9.533292 -58.952317 13.070533 -0.240479 7.338982 63.373674 -3.655432 19.961511 16.676441 46.338405 4.037425 2.818086 -3.296137 -53.205640 
0.022324 0.267049 1.016861 79.469098 -1.417998 83.370324 2.958305 6.113727 9.334687 -4.080274 -0.015184 1.236851 -0.701901 16.716180 -3.941499 0.000000 -0.000000 0.000000 -4.411404 -4.675129 1.774259 0.321404 -0.288083 9.097992 4.431175 -9.366506 -4.629137 0.000000 -0.000000 0.000000 1.558676 -0.471321 12.621844 -1.181358 -0.394669 6.378788 0.306817 -1.321689 5.287521 -5.275402 -4.709558 9.374609 5.079610 6.635606 13.420853 -15.628473 5.757215 11.618213 -58.260518 4.627277 14.853375 -8.943286 -62.928261 4.937221 23.772851 9.057309 -57.664994 13.108329 -0.466592 7.084186 63.516151 -3.612585 19.892122 16.298840 45.883476 5.068392 3.216539 -2.649553 -51.779534 
0.020596 0.262275 1.017048 78.745889 -1.318821 83.636284 3.333477 6.222288 8.997525 -4.049460 0.485996 1.457241 -0.838095 16.653188 -3.921205 0.000000 -0.000000 0.000000 -3.974452 -4.491193 1.313475 0.371671 -0.208997 9.171944 4.298173 -8.936371 -4.588939 0.000000 -0.000000 0.000000 1.478798 -0.737036 12.605198 -1.163965 -0.473712 6.621395 0.252064 -1.427809 5.244852 -5.407376 -3.822358 9.385140 4.840752 7.132113 13.652907 -15.603204 5.715331 11.295710 -58.358803 3.592063 14.329146 -4.302757 -64.500398 2.603455 23.859630 7.717815 -55.513082 13.117854 -0.601451 6.911837 63.954476 -3.268120 19.556243 14.955237 44.652281 6.248137 4.147938 -1.668554 -48.573957 
0.018620 0.257285 1.017335 77.985609 -1.220207 83.907270 3.651211 6.145954 8.764875 -3.957348 1.251710 1.433630 -0.977523 16.551732 -3.797538 0.000000 -0.000000 0.000000 -3.469208 -4.279484 0.834912 0.346666 -0.139492 9.236221 4.162316 -8.565833 -4.491516 0.000000 -0.000000 0.000000 1.366875 -1.054299 12.581199 -1.149117 -0.549600 6.788270 0.097677 -1.484237 5.292667 -5.411286 -2.842279 9.395135 4.506012 7.484447 14.075123 -15.376857 5.868801 10.779715 -58.199141 2.143992 14.007492 -0.345383 -66.505437 0.555029 23.405649 5.650546 -53.805280 13.153858 -0.781807 6.790829 64.448991 -2.667896 19.284812 13.082535 42.719945 6.212250 5.324144 -0.264884 -44.589420 
0.016650 0.251988 1.017708 77.286886 -1.160988 84.250076 3.956977 6.225560 8.417888 -3.889093 1.735599 1.485524 -1.134927 16.603723 -3.720969 0.000000 -0.000000 0.000000 -3.006345 -4.177857 0.296013 0.326813 -0.055190 9.358157 4.114066 -8.194180 -4.434262 0.000000 -0.000000 0.000000 1.184605 -1.392688 12.480537 -1.137401 -0.575488 6.924182 -0.076781 -1.426836 5.408970 -5.410408 -1.825958 9.573931 4.049816 7.924112 14.058197 -14.903118 6.043682 10.075911 -57.515365 0.431261 14.384216 1.893830 -69.593893 0.406845 22.817779 4.754309 -53.382306 13.148175 -1.195496 6.596975 64.821586 -1.995399 19.012115 11.332705 40.136612 5.451011 6.859392 0.255432 -42.722937 
0.015194 0.246583 1.018118 77.003029 -1.098862 84.471423 4.219797 6.076598 8.197878 -3.744813 2.094204 1.497959 -1.255893 16.452294 -3.521280 0.000000 -0.000000 0.000000 -2.621752 -4.234851 0.185822 0.393983 -0.067239 9.103676 4.072128 -8.027141 -4.329303 0.000000 -0.000000 0.000000 1.001820 -1.722452 12.386027 -1.097787 -0.837442 7.253376 -0.231975 -1.447300 5.408738 -5.339566 -0.561858 9.591455 3.575064 8.205440 14.339690 -14.392934 6.033322 9.494878 -56.430433 -1.586570 14.827091 4.421315 -73.552739 0.045539 21.396016 2.691563 -53.666468 13.101970 -1.745063 6.402652 64.769879 -1.578352 18.532169 9.825979 38.020816 4.219253 8.300952 1.301354 -41.857525 
0.013310 0.239444 1.018618 76.401510 -1.106038 84.876131 4.528941 6.075481 7.896721 -3.676867 2.405126 1.366885 -1.432452 16.597484 -3.283124 0.000000 -0.000000 0.000000 -2.156248 -4.153965 -0.243939 0.481451 0.139692 8.999422 4.103122 -7.988350 -4.242053 0.000000 -0.000000 0.000000 0.554056 -1.969694 12.298225 -1.045546 -0.909363 7.286211 -0.273376 -1.485729 5.497767 -5.468225 1.016438 10.110488 3.055040 8.646754 14.296400 -13.704653 5.670756 8.263637 -54.539034 -4.328443 15.572729 8.355335 -79.124098 -1.820538 20.343712 2.026829 -53.864476 12.786459 -2.596080 6.169520 63.999222 -1.662791 17.902660 8.394440 36.649797 2.547241 8.850150 0.711713 -41.496342 
0.012319 0.233932 1.018950 76.396401 -1.124302 85.000336 4.768659 5.938091 7.839009 -3.587918 2.529396 1.217834 -1.598880 16.598660 -3.120321 0.000000 -0.000000 0.000000 -1.847192 -4.222524 -0.261224 0.525909 0.049337 8.863454 4.153362 -8.029898 -4.213792 0.000000 -0.000000 0.000000 0.237021 -2.231346 12.219851 -1.112674 -1.174613 7.528030 -0.381010 -1.647258 5.596146 -5.556401 2.276848 10.495294 2.906858 9.108285 14.260919 -12.847382 4.993084 7.322249 -53.018385 -6.889476 16.206757 15.658910 -83.618305 -7.531635 18.835055 0.605184 -54.762570 12.298227 -3.226706 5.916570 62.816169 -1.726809 17.226471 7.604917 35.576704 1.919845 9.641326 1.109930 -41.213841 
0.011506 0.228462 1.019170 76.488723 -1.129681 85.139244 5.067238 5.728457 7.679010 -3.581835 2.506336 1.188918 -1.786003 16.639334 -2.932147 0.000000 -0.000000 0.000000 -1.557290 -4.411950 -0.227465 0.650519 0.095814 8.605741 4.146039 -8.148830 -4.151996 0.000000 -0.000000 0.000000 -0.128417 -2.542964 12.121635 -1.294994 -1.538753 7.699756 -0.403185 -1.859378 5.583410 -5.870118 2.788679 11.261908 2.824827 9.802510 14.232502 -11.991973 4.052547 6.526673 -51.697828 -9.421498 16.599560 59.214372 -87.052787 -49.802191 18.277734 -0.015701 -55.012739 11.250953 -3.427340 5.677470 61.296698 -1.855125 16.295768 7.036858 34.204489 1.387222 10.725314 1.161516 -40.202840 
0.011113 0.222840 1.019165 76.570785 -1.018955 85.208547 5.530450 5.693286 7.717161 -3.541487 2.394450 1.019997 -2.027748 16.605573 -2.622508 0.000000 -0.000000 0.000000 -1.061023 -4.626895 -0.101797 0.651613 0.210851 8.351664 4.104872 -8.340046 -4.090557 0.000000 -0.000000 0.000000 -0.444733 -2.905711 12.069335 -1.624927 -1.834258 7.862634 -0.452502 -2.054780 5.610152 -6.183431 3.671256 11.757909 3.166440 10.792294 14.000197 -10.967528 2.972710 5.618881 -50.495172 -12.153069 16.956449 128.846186 -85.363605 -118.152644 18.266250 -0.626844 -55.998223 10.020753 -3.543370 5.275180 59.093043 -1.917697 15.320345 6.956707 32.836977 1.314450 10.864302 1.346225 -40.293598 
0.009963 0.218307 1.019028 76.698220 -0.953755 85.330124 5.890686 5.452596 7.371414 -3.522185 2.343577 1.300335 -2.309015 16.698353 -2.572757 0.000000 -0.000000 0.000000 -0.787136 -4.813353 -0.133010 0.847807 0.233001 8.141508 4.229220 -8.424492 -4.088738 0.000000 -0.000000 0.000000 -0.632862 -3.227045 12.062130 -2.102963 -2.138636 7.901266 -0.656181 -2.263753 5.708521 -6.623094 4.516142 12.013205 3.562136 11.949765 14.071025 -9.855624 1.703742 4.678930 -49.304733 -15.138099 16.811037 145.536859 -81.589779 -133.692875 18.286301 -1.586792 -56.217461 8.432115 -3.520262 4.767369 56.529126 -1.914651 13.895167 6.391146 31.329146 1.071328 11.442334 1.256624 -37.911017 
0.009410 0.213498 1.018677 76.640870 -0.845505 85.343786 6.264387 5.258966 7.165639 -3.418637 2.367946 1.660815 -2.569799 16.850273 -2.523154 0.000000 -0.000000 0.000000 -0.410957 -5.014543 -0.094916 1.016635 0.540935 8.054240 4.225267 -8.654545 -4.083023 0.000000 -0.000000 0.000000 -0.748762 -3.642991 12.118394 -2.739787 -2.309491 7.797798 -0.998724 -2.379736 5.924493 -7.158853 4.946854 12.662803 3.836474 12.978725 13.785175 -8.514778 0.723945 3.627621 -47.951687 -18.063431 16.620935 150.537239 -77.895648 -137.539392 18.509785 -2.417309 -56.580334 6.447003 -3.481277 4.143819 53.565434 -1.550446 12.460826 6.230157 29.743568 0.896556 11.169742 1.511715 -37.170946 
0.009024 0.208898 1.018536 76.439754 -0.680084 85.441760 6.703450 5.249246 6.983182 -3.325298 2.440062 1.891483 -2.778760 17.073984 -2.443685 0.000000 -0.000000 0.000000 0.039070 -5.262067 -0.017248 1.141739 0.886446 7.711764 4.252178 -8.839431 -3.921656 0.000000 -0.000000 0.000000 -0.723439 -4.045929 12.048737 -3.460596 -2.392861 7.636598 -1.347381 -2.392504 6.041414 -7.914857 5.384322 13.337798 3.954157 14.221927 13.805801 -7.146769 -0.189157 2.510648 -46.275412 -20.366378 16.166141 151.710686 -74.289753 -137.778290 18.638423 -2.901700 -56.741733 4.218170 -3.471609 3.393087 50.044232 -1.137176 10.774881 6.077882 28.394615 0.715058 11.821392 1.404737 -35.907534 
